<?xml version="1.0" encoding="UTF-8"?>
<svg version="1.1" xmlns="http://www.w3.org/2000/svg" width="300" height="297">
<path d="M0 0 C5.49044254 2.76939303 10.36606581 6.30542274 15.3125 9.9375 C16.91533656 11.10420516 18.51820194 12.27087074 20.12109375 13.4375 C20.93304199 14.03046875 21.74499023 14.6234375 22.58154297 15.234375 C26.33943427 17.97787085 30.1054255 20.71008478 33.875 23.4375 C34.61145752 23.97044678 35.34791504 24.50339355 36.10668945 25.05249023 C42.53492805 29.69090281 49.02904245 34.23208446 55.53198242 38.76489258 C61.86702696 43.18781841 68.14392623 47.68552103 74.39331055 52.22851562 C78.14825469 54.95451895 81.91877231 57.65286159 85.7265625 60.3046875 C86.49589111 60.8414209 87.26521973 61.3781543 88.05786133 61.93115234 C89.51298997 62.94367608 90.97096781 63.95212312 92.43237305 64.95556641 C93.09019775 65.41366699 93.74802246 65.87176758 94.42578125 66.34375 C94.99723877 66.73755859 95.56869629 67.13136719 96.1574707 67.53710938 C96.76550537 68.01986328 97.37354004 68.50261719 98 69 C98.84474884 69.573517 99.68949768 70.147034 100.55984497 70.7379303 C104.863119 75.13745636 103.82642262 81.92177273 103.88500977 87.65600586 C103.91636099 89.06262352 103.94959752 90.46920023 103.98457336 91.87573242 C104.08951055 96.48847934 104.14157554 101.10122906 104.19140625 105.71484375 C104.21165795 107.30844605 104.23224297 108.90204415 104.25315666 110.49563789 C104.34838064 117.98882578 104.41952506 125.48176947 104.46121651 132.97544569 C104.50999276 141.59812969 104.64130826 150.21436403 104.84372097 158.83477682 C104.99514171 165.51534708 105.06861578 172.19408305 105.08512157 178.87633425 C105.09681815 182.86020399 105.14073028 186.83718439 105.26742744 190.8191967 C105.99345091 214.86793579 105.99345091 214.86793579 101.07981491 221.65056229 C96.4745667 226.07336335 91.30955075 228.97722714 85.57118034 231.68884468 C81.3515566 233.84061211 77.69355391 236.69956298 73.9375 239.5625 C67.86784241 243.99006633 61.71543527 248.27996326 55.5 252.5 C48.46089938 257.27948534 41.52590497 262.18108797 34.64428711 267.18432617 C28.77895757 271.44761456 22.87507625 275.65259351 16.92822266 279.80151367 C13.78410712 282.00105631 10.67973984 284.21917157 7.66796875 286.59765625 C6.70503906 287.34917969 5.74210938 288.10070312 4.75 288.875 C3.94046875 289.53242188 3.1309375 290.18984375 2.296875 290.8671875 C0 292 0 292 -2.328125 291.54296875 C-5.95104345 289.45078631 -9.19859089 287.00014336 -12.5 284.4375 C-19.5262354 279.06851846 -26.6812989 273.96268088 -34 269 C-35.36125 270.2375 -35.36125 270.2375 -36.75 271.5 C-39.53624497 274.03294997 -39.87258261 274 -44 274 C-43.80277344 273.27296875 -43.60554688 272.5459375 -43.40234375 271.796875 C-42.82650425 268.02246485 -42.85992622 265.67170819 -44 262 C-48.00154857 257.54449424 -53.54100513 254.59960762 -58.60107422 251.5 C-62.34729308 249.15756476 -65.91335574 246.57736265 -69.5 244 C-70.90527596 243.00513313 -72.31153158 242.01164865 -73.71875 241.01953125 C-74.41871094 240.52533691 -75.11867187 240.03114258 -75.83984375 239.52197266 C-78.81752139 237.42400222 -81.80162568 235.33524029 -84.78515625 233.24560547 C-86.93674277 231.7320004 -89.07862126 230.20552828 -91.21875 228.67578125 C-93.4633419 227.07210289 -95.71165806 225.54054035 -98.03125 224.04296875 C-103.735166 220.18921537 -103.735166 220.18921537 -104.56054688 216.48291016 C-104.63885742 215.14945557 -104.63885742 215.14945557 -104.71875 213.7890625 C-104.77998047 212.8913916 -104.84121094 211.9937207 -104.90429688 211.06884766 C-104.93587891 210.38612793 -104.96746094 209.7034082 -105 209 C-108.35480113 209.78899368 -111.70871942 210.58168047 -115.0625 211.375 C-116.00544922 211.59671875 -116.94839844 211.8184375 -117.91992188 212.046875 C-122.98708433 213.24745705 -128.00760928 214.51820858 -133 216 C-131.39369175 211.75707468 -129.4231838 207.72974893 -127.375 203.6875 C-126.88773438 202.71973633 -126.88773438 202.71973633 -126.390625 201.73242188 C-125.59558044 200.15402459 -124.79804366 198.57688306 -124 197 C-123.34 197 -122.68 197 -122 197 C-121.89945313 196.43539062 -121.79890625 195.87078125 -121.6953125 195.2890625 C-120.85732983 192.53031056 -119.56883156 190.70686677 -117.875 188.375 C-116.93720703 187.06982422 -116.93720703 187.06982422 -115.98046875 185.73828125 C-115.00013672 184.38283203 -115.00013672 184.38283203 -114 183 C-112.72594199 181.18976527 -111.45497308 179.3773514 -110.1875 177.5625 C-109.62417969 176.75941406 -109.06085938 175.95632812 -108.48046875 175.12890625 C-104.99776858 170.12080178 -104.77894222 166.90183148 -104.93505859 160.9296875 C-104.96751142 159.0041564 -104.99958794 157.07861893 -105.03134155 155.15307617 C-105.05148693 154.13071869 -105.07163231 153.10836121 -105.09238815 152.05502319 C-105.18792341 146.63472223 -105.21395611 141.21393477 -105.25 135.79296875 C-105.2976741 128.89652401 -105.36639048 122.00280567 -105.52441406 115.10791016 C-105.65032856 109.5338448 -105.69727475 103.96391435 -105.69234085 98.38848877 C-105.70464617 96.27040857 -105.74535821 94.15228543 -105.81574631 92.03533936 C-106.33066249 75.89578944 -106.33066249 75.89578944 -102.42264366 71.04017448 C-98.62789675 67.62303428 -94.41539008 65.18624522 -89.85148811 62.93892479 C-87.50487996 61.74891522 -85.42306677 60.29301594 -83.31640625 58.72265625 C-82.37474609 58.0565332 -82.37474609 58.0565332 -81.4140625 57.37695312 C-80.80304688 56.94318359 -80.19203125 56.50941406 -79.5625 56.0625 C-78.13673868 55.05335725 -76.71095683 54.04424353 -75.28515625 53.03515625 C-74.57762207 52.53387207 -73.87008789 52.03258789 -73.14111328 51.51611328 C-69.59702704 49.00656077 -66.0482939 46.50359782 -62.5 44 C-61.08331078 43.00003196 -59.66664412 42.00003195 -58.25 41 C-49.75 35 -49.75 35 -47.62524414 33.50024414 C-46.20767346 32.49955812 -44.79019308 31.49874417 -43.37280273 30.49780273 C-39.84569428 28.00724549 -36.31707783 25.51888408 -32.78515625 23.03515625 C-24.38034181 17.1202256 -16.01874645 11.15089361 -7.71118164 5.09985352 C-6.99309326 4.57834717 -6.27500488 4.05684082 -5.53515625 3.51953125 C-4.899729 3.05651611 -4.26430176 2.59350098 -3.60961914 2.11645508 C-2 1 -2 1 0 0 Z " fill="#000000" transform="translate(155,2)"/>
<path d="M0 0 C0.72720245 -0.00570007 1.45440491 -0.01140015 2.2036438 -0.01727295 C3.73486905 -0.02667289 5.26611407 -0.03323688 6.79736328 -0.03710938 C9.11917922 -0.04681799 11.44010983 -0.07788889 13.76171875 -0.109375 C15.25780731 -0.11590648 16.75390212 -0.12115638 18.25 -0.125 C19.27539383 -0.1435202 19.27539383 -0.1435202 20.32150269 -0.16241455 C27.53847577 -0.12963463 34.08779903 2.03311153 39.2578125 7.203125 C41.12034014 9.76838547 42.71100192 12.43807472 44.2578125 15.203125 C44.63164062 15.85667969 45.00546875 16.51023437 45.390625 17.18359375 C49.75482137 25.28160257 50.56127034 33.35302488 50.48828125 42.43359375 C50.48782303 43.38647781 50.48736481 44.33936188 50.4868927 45.32112122 C50.48388869 47.32713067 50.47605843 49.33313817 50.46362305 51.33911133 C50.44546726 54.364833 50.4431132 57.39024531 50.44335938 60.41601562 C50.43661252 65.17052124 50.38806471 69.9227636 50.30187988 74.67648315 C50.27387047 76.28242756 50.25266447 77.88851608 50.24060059 79.49465942 C50.22121427 81.45525616 50.16112102 83.41533483 50.09765625 85.375 C50.07179443 86.42139648 50.04593262 87.46779297 50.01928711 88.54589844 C48.93993788 92.31237391 46.92809847 93.30762757 43.6328125 95.265625 C41.17086009 96.38497616 38.80393169 97.3153386 36.2578125 98.203125 C35.17894775 98.59048828 34.10008301 98.97785156 32.98852539 99.37695312 C24.08154826 102.47462707 15.18942016 104.6711827 5.9453125 106.578125 C-3.77099386 108.63644299 -13.13510736 110.92309566 -22.21411133 115.06982422 C-28.19468065 117.74066852 -33.75339251 118.26197039 -39.9921875 115.953125 C-45.63258764 114.12127299 -51.33628824 113.0236478 -57.14916992 111.90209961 C-62.40775878 110.88128931 -67.64706364 109.79928943 -72.87890625 108.6484375 C-74.72282959 108.24395386 -74.72282959 108.24395386 -76.60400391 107.83129883 C-79.01498929 107.29988953 -81.42488714 106.7635142 -83.83349609 106.22143555 C-90.00705673 104.86685617 -96.00880805 103.89558616 -102.31079102 103.42504883 C-107.57078937 102.94494656 -112.62772251 101.46799269 -117.7421875 100.203125 C-117.7421875 93.273125 -117.7421875 86.343125 -117.7421875 79.203125 C-114.7721875 78.213125 -114.7721875 78.213125 -111.7421875 77.203125 C-112.0721875 76.543125 -112.4021875 75.883125 -112.7421875 75.203125 C-112.7421875 75.863125 -112.7421875 76.523125 -112.7421875 77.203125 C-115.2171875 77.698125 -115.2171875 77.698125 -117.7421875 78.203125 C-117.9671935 74.11455452 -118.12910294 70.02844566 -118.23657227 65.93505859 C-118.28142428 64.54770056 -118.34253936 63.16075788 -118.42114258 61.77490234 C-118.84120743 54.16980675 -118.78838 48.42685775 -113.4765625 42.46875 C-111.93749041 41.00469258 -110.36002113 39.57965011 -108.7421875 38.203125 C-107.58916138 37.16321411 -107.58916138 37.16321411 -106.4128418 36.10229492 C-105.11416149 34.94046927 -103.79848015 33.79730848 -102.46484375 32.67578125 C-100.57464847 31.10509155 -100.57464847 31.10509155 -98.3671875 28.765625 C-96.7421875 27.203125 -96.7421875 27.203125 -94.7421875 27.203125 C-94.7421875 26.543125 -94.7421875 25.883125 -94.7421875 25.203125 C-94.0821875 25.203125 -93.4221875 25.203125 -92.7421875 25.203125 C-92.7421875 24.543125 -92.7421875 23.883125 -92.7421875 23.203125 C-91.8346875 22.790625 -90.9271875 22.378125 -89.9921875 21.953125 C-86.85995382 20.26653763 -85.18667813 18.72169111 -82.7421875 16.203125 C-66.21341022 2.1360805 -36.71650988 2.86296931 -16.12207031 1.43676758 C-13.66051234 1.22804904 -13.66051234 1.22804904 -10.93212891 0.69116211 C-7.27635018 0.13185538 -3.68889582 0.02279864 0 0 Z " fill="#FAC50D" transform="translate(186.7421875,49.796875)"/>
<path d="M0 0 C-3.48374457 3.65760983 -7.02543724 6.596004 -11.1875 9.5 C-12.43789776 10.3796432 -13.68787727 11.25988114 -14.9375 12.140625 C-15.5975 12.60404297 -16.2575 13.06746094 -16.9375 13.54492188 C-20.54009652 16.08652643 -24.11382801 18.66795482 -27.6875 21.25 C-28.44184326 21.79462891 -29.19618652 22.33925781 -29.97338867 22.90039062 C-36.30874236 27.48270307 -42.60219843 32.12062545 -48.89111328 36.76635742 C-56.45999397 42.3520272 -64.08331583 47.86042052 -71.71777344 53.35595703 C-76.44966895 56.76466311 -81.17440031 60.18330477 -85.90063477 63.59985352 C-86.94562134 64.35480103 -86.94562134 64.35480103 -88.01171875 65.125 C-88.91603638 65.77855469 -88.91603638 65.77855469 -89.83862305 66.4453125 C-92 68 -92 68 -93.71438408 68.9480772 C-95.73079621 70.15532195 -97.35834381 71.31300811 -99 73 C-99.68967366 76.16755823 -99.89571139 78.3059783 -99.79467773 81.4621582 C-99.79569992 82.3016954 -99.79672211 83.1412326 -99.79777527 84.00621033 C-99.79291055 86.77237032 -99.73852728 89.5352005 -99.68359375 92.30078125 C-99.67053346 94.22175798 -99.66057132 96.14275807 -99.65357971 98.06376648 C-99.62688794 103.11305431 -99.55815581 108.1609263 -99.48065186 113.20965576 C-99.40896682 118.36418504 -99.37705697 123.51894376 -99.34179688 128.67382812 C-99.26678604 138.78317322 -99.1473583 148.89146875 -99 159 C-98.35933594 158.07171387 -97.71867187 157.14342773 -97.05859375 156.18701172 C-96.1859877 154.97544983 -95.31222843 153.76471795 -94.4375 152.5546875 C-94.01919922 151.94197998 -93.60089844 151.32927246 -93.16992188 150.69799805 C-90.66860849 147.29160416 -89.63272241 146.15103696 -85.3671875 145.1328125 C-81.34314558 145.12347598 -77.64373815 145.17813093 -74 147 C-72.04477968 147.25436252 -70.08542436 147.47696944 -68.125 147.6875 C-56.81841281 149.05657374 -45.74498648 151.76726358 -34.63427734 154.2109375 C-27.86468903 155.68072854 -21.07637305 157.06180641 -14.28735352 158.4387207 C-13.35463623 158.63038818 -12.42191895 158.82205566 -11.4609375 159.01953125 C-10.64415527 159.18557861 -9.82737305 159.35162598 -8.98583984 159.52270508 C-7 160 -7 160 -5 161 C1.28360694 161.45415498 5.38087549 160.35541157 11.0625 157.8125 C18.17415338 154.83021806 25.19872238 152.85671466 32.75 151.3125 C34.23185791 151.00928833 34.23185791 151.00928833 35.74365234 150.69995117 C37.64818673 150.31174246 39.55280547 149.92394731 41.45751953 149.53662109 C51.72372815 147.36981424 61.57447159 143.83536324 71.42651367 140.28564453 C72.66171753 139.84260986 72.66171753 139.84260986 73.921875 139.390625 C74.66018555 139.12282227 75.39849609 138.85501953 76.15917969 138.57910156 C78 138 78 138 80 138 C80.20547311 144.59502409 79.53338224 150.39456745 78.0625 156.8125 C77.88009766 157.64458984 77.69769531 158.47667969 77.50976562 159.33398438 C77.01903851 161.5592088 76.51892551 163.78119153 76 166 C75.76543091 167.07447388 75.76543091 167.07447388 75.52612305 168.1706543 C74.82364689 170.61318508 73.71875566 171.41176014 71.75 173 C67.96358802 176.15759713 64.34716947 179.44438175 60.75 182.8125 C52.30961537 190.64763713 43.64773267 198.05749307 34.109375 204.54296875 C31.85618523 206.05850838 31.85618523 206.05850838 29.3125 208.1875 C26.97707128 210.01797116 24.53477167 211.37764817 21.9453125 212.8125 C18.04677744 215.19232863 14.56009265 218.14954055 11 221 C6.10542818 224.86711624 1.20867111 228.56227707 -4 232 C-16.08478766 240.39169007 -16.08478766 240.39169007 -26.125 251 C-26.64320313 251.680625 -27.16140625 252.36125 -27.6953125 253.0625 C-29.17127429 255.06784069 -29.17127429 255.06784069 -30 258 C-30.66 258 -31.32 258 -32 258 C-32.28875 258.639375 -32.5775 259.27875 -32.875 259.9375 C-34 262 -34 262 -36 263 C-35.01 259.7 -34.02 256.4 -33 253 C-33.9590625 255.35125 -33.9590625 255.35125 -34.9375 257.75 C-35.29714844 258.63171875 -35.65679687 259.5134375 -36.02734375 260.421875 C-37.03144609 262.90725913 -37.03144609 262.90725913 -37.5078125 265.21875 C-38.23018694 267.83305749 -39.74061889 268.63067812 -42 270 C-42.66 270 -43.32 270 -44 270 C-44.13765941 253.81518695 -40.92872872 238.66231464 -37.33015442 222.98066711 C-36.56021165 219.60556808 -35.84074859 216.23074523 -35.20996094 212.82666016 C-35.08326019 212.15057205 -34.95655945 211.47448395 -34.82601929 210.77790833 C-34.48299966 208.92026051 -34.15197342 207.06040946 -33.82177734 205.20043945 C-32.39024462 199.62528722 -29.84674381 196.11576388 -25 193 C-22.1875 192.75 -22.1875 192.75 -20 193 C-16.58834771 201.75162978 -15.55912195 206.07704505 -19 215 C-13.76017333 202.77130879 -13.76017333 202.77130879 -9.6171875 190.14453125 C-8.97687362 187.91964316 -8.20459555 185.78589889 -7.375 183.625 C-6.3924906 181.03474795 -5.62405257 178.67282892 -5 176 C-19.2418945 176.58526617 -19.2418945 176.58526617 -32.546875 181.3359375 C-37.8715112 184.0241975 -43.27446636 186.02393588 -48.9375 187.875 C-49.95730957 188.21305664 -50.97711914 188.55111328 -52.02783203 188.89941406 C-61.16125642 191.8604849 -70.4091779 194.30261144 -79.73803711 196.56591797 C-86.44204167 198.21640012 -92.6466424 200.28891976 -99 203 C-99 208.28 -99 213.56 -99 219 C-103 218 -103 218 -105 216 C-105.4140625 213.6171875 -105.4140625 213.6171875 -105.625 210.875 C-105.69976562 209.96492187 -105.77453125 209.05484375 -105.8515625 208.1171875 C-105.90054688 207.41851562 -105.94953125 206.71984375 -106 206 C-109.35480113 206.78899368 -112.70871942 207.58168047 -116.0625 208.375 C-117.00544922 208.59671875 -117.94839844 208.8184375 -118.91992188 209.046875 C-123.98708433 210.24745705 -129.00760928 211.51820858 -134 213 C-132.39369175 208.75707468 -130.4231838 204.72974893 -128.375 200.6875 C-127.88773438 199.71973633 -127.88773438 199.71973633 -127.390625 198.73242188 C-126.59558044 197.15402459 -125.79804366 195.57688306 -125 194 C-124.34 194 -123.68 194 -123 194 C-122.89945313 193.43539062 -122.79890625 192.87078125 -122.6953125 192.2890625 C-121.85732983 189.53031056 -120.56883156 187.70686677 -118.875 185.375 C-117.93720703 184.06982422 -117.93720703 184.06982422 -116.98046875 182.73828125 C-116.00013672 181.38283203 -116.00013672 181.38283203 -115 180 C-113.72594199 178.18976527 -112.45497308 176.3773514 -111.1875 174.5625 C-110.62417969 173.75941406 -110.06085938 172.95632812 -109.48046875 172.12890625 C-105.99776858 167.12080178 -105.77894222 163.90183148 -105.93505859 157.9296875 C-105.96751142 156.0041564 -105.99958794 154.07861893 -106.03134155 152.15307617 C-106.05148693 151.13071869 -106.07163231 150.10836121 -106.09238815 149.05502319 C-106.18792341 143.63472223 -106.21395611 138.21393477 -106.25 132.79296875 C-106.2976741 125.89652401 -106.36639048 119.00280567 -106.52441406 112.10791016 C-106.65032856 106.5338448 -106.69727475 100.96391435 -106.69234085 95.38848877 C-106.70464617 93.27040857 -106.74535821 91.15228543 -106.81574631 89.03533936 C-107.33066249 72.89578944 -107.33066249 72.89578944 -103.42264366 68.04017448 C-99.62789675 64.62303428 -95.41539008 62.18624522 -90.85148811 59.93892479 C-88.50487996 58.74891522 -86.42306677 57.29301594 -84.31640625 55.72265625 C-83.37474609 55.0565332 -83.37474609 55.0565332 -82.4140625 54.37695312 C-81.80304688 53.94318359 -81.19203125 53.50941406 -80.5625 53.0625 C-79.13673868 52.05335725 -77.71095683 51.04424353 -76.28515625 50.03515625 C-75.57762207 49.53387207 -74.87008789 49.03258789 -74.14111328 48.51611328 C-70.59702704 46.00656077 -67.0482939 43.50359782 -63.5 41 C-62.08331078 40.00003196 -60.66664412 39.00003195 -59.25 38 C-50.75 32 -42.25 26 -33.75 20 C-33.04770264 19.50395264 -32.34540527 19.00790527 -31.62182617 18.49682617 C-30.21691223 17.50574029 -28.81083918 16.5162953 -27.40356445 15.52856445 C-23.67050562 12.9050645 -19.96676101 10.24897873 -16.29296875 7.54296875 C-15.52210938 6.98158203 -14.75125 6.42019531 -13.95703125 5.84179688 C-12.47421145 4.7609463 -10.99856112 3.6701718 -9.53125 2.56835938 C-8.53158203 1.84422852 -8.53158203 1.84422852 -7.51171875 1.10546875 C-6.92865967 0.67387451 -6.34560059 0.24228027 -5.74487305 -0.20239258 C-3.47363299 -1.24061019 -2.30343372 -0.81708255 0 0 Z " fill="#2B2B2B" transform="translate(156,5)"/>
<path d="M0 0 C5.2498914 0.27154611 8.63547129 0.6557087 12.62890625 4.421875 C15.18896132 7.36849109 17.11839675 10.59157392 19 14 C19.37253906 14.65226562 19.74507813 15.30453125 20.12890625 15.9765625 C24.49947356 24.07259493 25.30346006 32.14962407 25.23046875 41.23046875 C25.23001053 42.18335281 25.22955231 43.13623688 25.2290802 44.11799622 C25.22607619 46.12400567 25.21824593 48.13001317 25.20581055 50.13598633 C25.18765476 53.161708 25.1853007 56.18712031 25.18554688 59.21289062 C25.17880002 63.96739624 25.13025221 68.7196386 25.04406738 73.47335815 C25.01605797 75.07930256 24.99485197 76.68539108 24.98278809 78.29153442 C24.96340177 80.25213116 24.90330852 82.21220983 24.83984375 84.171875 C24.81398193 85.21827148 24.78812012 86.26466797 24.76147461 87.34277344 C23.68212538 91.10924891 21.67028597 92.10450257 18.375 94.0625 C15.91304759 95.18185116 13.54611919 96.1122136 11 97 C9.38170288 97.58104492 9.38170288 97.58104492 7.73071289 98.17382812 C-1.17626424 101.27150207 -10.06839234 103.4680577 -19.3125 105.375 C-29.02880636 107.43331799 -38.39291986 109.71997066 -47.47192383 113.86669922 C-53.1526974 116.40365865 -58.01633834 116.99455389 -64 115 C-64.66 114.67 -65.32 114.34 -66 114 C-65.67121288 111.02749604 -65.01980353 110.01944412 -62.84765625 107.88671875 C-59.913488 105.56983695 -56.97601278 103.26300972 -54 101 C-53.2575 100.4328125 -52.515 99.865625 -51.75 99.28125 C-36.86974963 88.43992473 -20.14722594 78.7611043 -3 72 C-2.98969254 71.34426498 -2.97938507 70.68852997 -2.96876526 70.01292419 C-2.85961871 63.11701625 -2.7451254 56.22121104 -2.62768555 49.32543945 C-2.58467915 46.7603574 -2.5429841 44.19525298 -2.50268555 41.63012695 C-1.90614317 3.81228635 -1.90614317 3.81228635 0 0 Z " fill="#DA930E" transform="translate(212,51)"/>
<path d="M0 0 C3 1 3 1 4.71875 4.0546875 C5.32252097 5.32340447 5.91589457 6.59710995 6.5 7.875 C8.29370116 11.7522143 9.91606669 14.9980862 13 18 C14.04109556 19.97891891 15.03627229 21.98227135 16 24 C17.84642389 27.3646825 19.70637537 30.72138188 21.57421875 34.07421875 C23 37 23 37 23 40 C21.68 40 20.36 40 19 40 C19 40.66 19 41.32 19 42 C0.36383702 46.48871022 -20.05725424 43.9957322 -39 43 C-39 42.34 -39 41.68 -39 41 C-40.65 41 -42.3 41 -44 41 C-42.395215 36.74427269 -39.17847904 34.14091997 -35.875 31.1875 C-34.98723877 30.38203735 -34.98723877 30.38203735 -34.08154297 29.56030273 C-32.39389663 28.03310977 -30.69896871 26.51457624 -29 25 C-28.30390625 24.37867187 -27.6078125 23.75734375 -26.890625 23.1171875 C-24.93832871 21.39813015 -22.96961239 19.69920798 -21 18 C-19.77308932 16.93138921 -18.54656628 15.86233328 -17.3203125 14.79296875 C-15.96362598 13.61188231 -14.60685423 12.43089377 -13.25 11.25 C-12.27377686 10.3983728 -12.27377686 10.3983728 -11.27783203 9.52954102 C-2.60758742 2 -2.60758742 2 0 2 C0 1.34 0 0.68 0 0 Z " fill="#FEFFC6" transform="translate(165,80)"/>
<path d="M0 0 C2.24609375 5.76171875 2.24609375 5.76171875 3 8 C3.25265625 8.74636719 3.5053125 9.49273437 3.765625 10.26171875 C4.10599785 14.23840822 2.71464707 17.47577568 1.3125 21.125 C1.03140381 21.88635254 0.75030762 22.64770508 0.46069336 23.43212891 C-0.09990612 24.94817511 -0.66545927 26.46240019 -1.23632812 27.97460938 C-2.1629457 30.43216035 -3.05119007 32.90266179 -3.9375 35.375 C-4.62390285 37.25040192 -5.31159019 39.12533385 -6 41 C-6.2592627 41.70946777 -6.51852539 42.41893555 -6.78564453 43.14990234 C-13.27167237 60.89865859 -13.27167237 60.89865859 -16.2734375 68.08984375 C-17.05575429 70.00998094 -17.05575429 70.00998094 -17.48046875 72.14453125 C-18.22564278 74.80586707 -19.69222109 75.60134612 -22 77 C-22.66 77 -23.32 77 -24 77 C-24.13765941 60.81518695 -20.92872872 45.66231464 -17.33015442 29.98066711 C-16.56021165 26.60556808 -15.84074859 23.23074523 -15.20996094 19.82666016 C-15.08326019 19.15057205 -14.95655945 18.47448395 -14.82601929 17.77790833 C-14.48299966 15.92026051 -14.15197342 14.06040946 -13.82177734 12.20043945 C-12.03573331 5.244631 -7.83409601 -0.89532526 0 0 Z " fill="#FFC90E" transform="translate(136,198)"/>
<path d="M0 0 C0.598125 0.20625 1.19625 0.4125 1.8125 0.625 C-1.67124457 4.28260983 -5.21293724 7.221004 -9.375 10.125 C-10.62539776 11.0046432 -11.87537727 11.88488114 -13.125 12.765625 C-13.785 13.22904297 -14.445 13.69246094 -15.125 14.16992188 C-18.72759652 16.71152643 -22.30132801 19.29295482 -25.875 21.875 C-26.62934326 22.41962891 -27.38368652 22.96425781 -28.16088867 23.52539062 C-34.49624236 28.10770307 -40.78969843 32.74562545 -47.07861328 37.39135742 C-54.64749397 42.9770272 -62.27081583 48.48542052 -69.90527344 53.98095703 C-74.63716895 57.38966311 -79.36190031 60.80830477 -84.08813477 64.22485352 C-84.78479248 64.72815186 -85.4814502 65.2314502 -86.19921875 65.75 C-86.80209717 66.18570313 -87.40497559 66.62140625 -88.02612305 67.0703125 C-90.1875 68.625 -90.1875 68.625 -91.90088844 69.57208157 C-93.91804641 70.77943769 -95.54531839 71.93751792 -97.1875 73.625 C-97.88531883 76.79749059 -98.09909311 78.95155064 -98.01049805 82.11547852 C-98.01484863 82.95834412 -98.01919922 83.80120972 -98.02368164 84.6696167 C-98.03068143 87.44875321 -97.9893656 90.22508688 -97.94921875 93.00390625 C-97.94844635 94.93774098 -97.95133172 96.87158033 -97.9577179 98.80540466 C-97.96730957 103.89235566 -97.9386632 108.97828683 -97.89855957 114.06506348 C-97.83710264 122.21017719 -97.81732809 130.35503229 -97.82837868 138.50034904 C-97.82426653 141.34584675 -97.79394253 144.19024176 -97.76139832 147.03553772 C-97.75751788 148.77832858 -97.75456356 150.52112184 -97.75268555 152.26391602 C-97.73665787 153.05519394 -97.72063019 153.84647186 -97.70411682 154.66172791 C-97.7232577 158.34352926 -97.87008954 160.23002224 -100.2146759 163.14756775 C-101.19122383 163.87889671 -101.19122383 163.87889671 -102.1875 164.625 C-102.30333311 152.58576307 -102.39218486 140.54665864 -102.44656086 128.50697803 C-102.47265829 122.91647985 -102.50805972 117.3263628 -102.56469727 111.73608398 C-102.61901076 106.34145549 -102.64891943 100.94719366 -102.66188622 95.55231285 C-102.67112721 93.49377354 -102.68917281 91.43525438 -102.71615028 89.37687111 C-102.75243144 86.4940512 -102.75744569 83.61274768 -102.75512695 80.72973633 C-102.78209152 79.45227287 -102.78209152 79.45227287 -102.80960083 78.14900208 C-102.77170311 73.79651167 -102.61996362 72.15882919 -99.78538513 68.65985107 C-95.14793978 65.02746928 -95.14793978 65.02746928 -92.921875 63.49609375 C-92.12313965 62.94236084 -91.3244043 62.38862793 -90.50146484 61.81811523 C-89.65535645 61.23876221 -88.80924805 60.65940918 -87.9375 60.0625 C-86.13260801 58.81279528 -84.3279238 57.56279043 -82.5234375 56.3125 C-81.62334961 55.69117188 -80.72326172 55.06984375 -79.79589844 54.4296875 C-76.0363601 51.82855428 -72.29685887 49.19960935 -68.5625 46.5625 C-67.87494629 46.07765137 -67.18739258 45.59280273 -66.47900391 45.09326172 C-61.39352786 41.49882775 -56.35067558 37.84780179 -51.3125 34.1875 C-44.40287771 29.17027914 -37.39426759 24.31870403 -30.32861328 19.52441406 C-22.395048 14.12374579 -14.62602829 8.50288022 -6.87890625 2.83911133 C-2.36004653 -0.4045794 -2.36004653 -0.4045794 0 0 Z " fill="#E1D600" transform="translate(154.1875,4.375)"/>
<path d="M0 0 C1.63463483 3.26926966 -0.05369941 6.06573342 -1.11328125 9.421875 C-2.23922306 12.69553841 -3.60969225 15.83009832 -5 19 C-5.61298134 20.68431811 -6.21621324 22.37219952 -6.8125 24.0625 C-9.2387496 30.84089382 -12.11277989 37.40751407 -15 44 C-16 41 -16 41 -15.1171875 38.94140625 C-14.70726562 38.15636719 -14.29734375 37.37132812 -13.875 36.5625 C-11.12206111 30.22324957 -12.7920001 25.29929384 -15 19 C-18.68319223 18.68396727 -18.68319223 18.68396727 -21.6875 20.5 C-22.120625 20.995 -22.55375 21.49 -23 22 C-23.66 22 -24.32 22 -25 22 C-25.33 23.32 -25.66 24.64 -26 26 C-26.66 26 -27.32 26 -28 26 C-28.0269501 23.06243881 -28.04681474 20.12512445 -28.0625 17.1875 C-28.07087891 16.35412109 -28.07925781 15.52074219 -28.08789062 14.66210938 C-28.09111328 13.85966797 -28.09433594 13.05722656 -28.09765625 12.23046875 C-28.10289307 11.49207764 -28.10812988 10.75368652 -28.11352539 9.99291992 C-28 8 -28 8 -27 5 C-22.60394374 2.26570597 -18.6000536 1.41890881 -13.5 0.8125 C-12.2315625 0.65394531 -10.963125 0.49539062 -9.65625 0.33203125 C-6.4086728 0.03711238 -3.25777942 -0.06535669 0 0 Z " fill="#121212" transform="translate(151,180)"/>
<path d="M0 0 C0 5.28 0 10.56 0 16 C-4 15 -4 15 -5 14 C-5.07244053 11.98035801 -5.08377188 9.95832876 -5.0625 7.9375 C-5.05347656 6.83277344 -5.04445312 5.72804687 -5.03515625 4.58984375 C-5.02355469 3.73519531 -5.01195312 2.88054687 -5 2 C-1.125 0 -1.125 0 0 0 Z " fill="#F0E400" transform="translate(57,208)"/>
<path d="M0 0 C2.91227269 3.28804981 4.49701212 5.59885603 5 10 C3.35 10.33 1.7 10.66 0 11 C0 7.37 0 3.74 0 0 Z " fill="#FEFFC6" transform="translate(69,117)"/>
</svg>
